<svg width="140" height="34" viewBox="0 0 140 34" fill="none" xmlns="http://www.w3.org/2000/svg">
<g id="logo-51" clip-path="url(#clip0_1_399)">
<path id="Vector" d="M41.0962 23.8776H51.0076V20.8922H44.6189V9.64737H41.0962V23.8776Z" fill="#080C2E"/>
<path id="Vector_2" d="M56.8798 21.8874C55.4667 21.8874 54.7303 20.6534 54.7303 18.8025C54.7303 16.9516 55.4667 15.6977 56.8798 15.6977C58.2929 15.6977 59.0492 16.9516 59.0492 18.8025C59.0492 20.6534 58.2929 21.8874 56.8798 21.8874ZM56.8997 24.1961C60.1836 24.1961 62.3331 21.8675 62.3331 18.8025C62.3331 15.7375 60.1836 13.4089 56.8997 13.4089C53.6357 13.4089 51.4464 15.7375 51.4464 18.8025C51.4464 21.8675 53.6357 24.1961 56.8997 24.1961Z" fill="#080C2E"/>
<path id="Vector_3" d="M68.0172 27.4004C69.5298 27.4004 70.8633 27.062 71.7589 26.2659C72.5749 25.5295 73.1122 24.415 73.1122 22.8825V13.6876H70.0075V14.7822H69.9677C69.3706 13.9264 68.4551 13.389 67.1017 13.389C64.5741 13.389 62.8227 15.4987 62.8227 18.4841C62.8227 21.6087 64.9522 23.3204 67.241 23.3204C68.475 23.3204 69.2512 22.8228 69.8482 22.1461H69.9278V23.1611C69.9278 24.3951 69.3507 25.1116 67.9774 25.1116C66.9027 25.1116 66.3653 24.6538 66.1862 24.1165H63.0416C63.36 26.246 65.211 27.4004 68.0172 27.4004ZM67.9973 20.9122C66.7833 20.9122 65.9872 19.917 65.9872 18.3846C65.9872 16.8322 66.7833 15.837 67.9973 15.837C69.3507 15.837 70.0672 16.9914 70.0672 18.3646C70.0672 19.7976 69.4104 20.9122 67.9973 20.9122Z" fill="#080C2E"/>
<path id="Vector_4" d="M79.4963 21.8874C78.0832 21.8874 77.3468 20.6534 77.3468 18.8025C77.3468 16.9516 78.0832 15.6977 79.4963 15.6977C80.9094 15.6977 81.6656 16.9516 81.6656 18.8025C81.6656 20.6534 80.9094 21.8874 79.4963 21.8874ZM79.5162 24.1961C82.8001 24.1961 84.9498 21.8675 84.9498 18.8025C84.9498 15.7375 82.8001 13.4089 79.5162 13.4089C76.2522 13.4089 74.0629 15.7375 74.0629 18.8025C74.0629 21.8675 76.2522 24.1961 79.5162 24.1961Z" fill="#080C2E"/>
<path id="Vector_5" d="M85.8968 23.8776H89.1409V13.6876H85.8968V23.8776ZM85.8968 12.2745H89.1409V9.64737H85.8968V12.2745Z" fill="#080C2E"/>
<path id="Vector_6" d="M90.5482 27.2411H93.7923V22.8228H93.8321C94.469 23.6786 95.4044 24.1961 96.7179 24.1961C99.3849 24.1961 101.156 22.0864 101.156 18.7826C101.156 15.7176 99.5043 13.389 96.7976 13.389C95.4044 13.389 94.4093 14.006 93.7127 14.9215H93.653V13.6876H90.5482V27.2411ZM95.882 21.6884C94.4889 21.6884 93.6928 20.5539 93.6928 18.902C93.6928 17.2501 94.4093 15.9963 95.8223 15.9963C97.2155 15.9963 97.8723 17.1506 97.8723 18.902C97.8723 20.6335 97.116 21.6884 95.882 21.6884Z" fill="#080C2E"/>
<path id="Vector_7" d="M106.439 24.1961C109.106 24.1961 111.076 23.0417 111.076 20.8126C111.076 18.2054 108.966 17.7477 107.175 17.4491C105.881 17.2103 104.727 17.1108 104.727 16.3943C104.727 15.7574 105.344 15.4589 106.14 15.4589C107.036 15.4589 107.653 15.7375 107.772 16.653H110.757C110.598 14.6429 109.046 13.389 106.16 13.389C103.752 13.389 101.762 14.5036 101.762 16.653C101.762 19.0413 103.652 19.519 105.424 19.8175C106.777 20.0564 108.011 20.1559 108.011 21.0714C108.011 21.7282 107.394 22.0864 106.419 22.0864C105.344 22.0864 104.667 21.5888 104.548 20.5738H101.483C101.582 22.8228 103.453 24.1961 106.439 24.1961Z" fill="#080C2E"/>
<path id="Vector_8" d="M115.482 24.1761C116.895 24.1761 117.79 23.6189 118.527 22.6238H118.587V23.8776H121.691V13.6876H118.447V19.3797C118.447 20.5937 117.771 21.4296 116.656 21.4296C115.621 21.4296 115.124 20.8126 115.124 19.6981V13.6876H111.899V20.3748C111.899 22.6437 113.133 24.1761 115.482 24.1761Z" fill="#080C2E"/>
<path id="Vector_9" d="M123.103 23.8776H126.347V18.1656C126.347 16.9516 126.944 16.0958 127.959 16.0958C128.934 16.0958 129.392 16.7326 129.392 17.8273V23.8776H132.636V18.1656C132.636 16.9516 133.213 16.0958 134.248 16.0958C135.223 16.0958 135.681 16.7326 135.681 17.8273V23.8776H138.925V17.2501C138.925 14.9613 137.771 13.389 135.462 13.389C134.149 13.389 133.054 13.9463 132.258 15.1803H132.218C131.701 14.0856 130.686 13.389 129.352 13.389C127.879 13.389 126.904 14.0856 126.267 15.1405H126.208V13.6876H123.103V23.8776Z" fill="#080C2E"/>
<path id="Vector_10" fill-rule="evenodd" clip-rule="evenodd" d="M7.94491 3.22709C6.75851 4.05666 5.68568 5.03748 4.75437 6.14158C8.56014 5.78826 13.3952 6.3652 19.0087 9.17196C25.0031 12.1691 29.8302 12.2704 33.1895 11.6224C32.8847 10.6996 32.5009 9.81257 32.0464 8.96937C28.2008 9.37497 23.2708 8.8381 17.5253 5.96543C13.8769 4.14121 10.6608 3.38975 7.94491 3.22709ZM29.8 5.77194C26.7631 2.37886 22.3498 0.2435 17.4377 0.2435C15.9952 0.2435 14.5956 0.427686 13.2613 0.7738C15.0684 1.26689 16.9882 1.98827 19.0087 2.99855C23.2152 5.10179 26.8469 5.77899 29.8 5.77194ZM33.9077 14.8619C29.8493 15.6633 24.245 15.4987 17.5253 12.1388C11.2431 8.99773 6.243 9.03729 2.87076 9.7867C2.69669 9.82534 2.52673 9.86598 2.36087 9.90827C1.91935 10.8685 1.56693 11.8782 1.31406 12.9267C1.58414 12.8546 1.86322 12.786 2.15117 12.722C6.24229 11.8128 12.0227 11.8523 19.0087 15.3454C25.291 18.4865 30.2911 18.4469 33.6634 17.6975C33.7789 17.6719 33.8927 17.6453 34.0047 17.618C34.017 17.3565 34.0231 17.0934 34.0231 16.8288C34.0231 16.1634 33.984 15.507 33.9077 14.8619ZM33.4632 21.1181C29.4441 21.8207 24.0031 21.551 17.5253 18.3122C11.2431 15.1711 6.243 15.2107 2.87076 15.9601C2.12222 16.1264 1.44884 16.329 0.854831 16.5428C0.853212 16.6379 0.852402 16.7333 0.852402 16.8288C0.852402 25.9887 8.27791 33.4142 17.4377 33.4142C25.1144 33.4142 31.5729 28.1989 33.4632 21.1181Z" fill="#080C2E"/>
</g>
<defs>
<clipPath id="clip0_1_399">
<rect width="138.488" height="34" fill="white" transform="translate(0.76828)"/>
</clipPath>
</defs>
</svg>
