<svg width="142" height="34" viewBox="0 0 142 34" fill="none" xmlns="http://www.w3.org/2000/svg">
<g id="logo-54" clip-path="url(#clip0_1_421)">
<path id="Vector" d="M43.2377 23.3339H53.1491V20.3486H46.7604V9.1037H43.2377V23.3339Z" fill="#080C2E"/>
<path id="Vector_2" d="M59.0212 21.3437C57.6082 21.3437 56.8718 20.1098 56.8718 18.2588C56.8718 16.4079 57.6082 15.154 59.0212 15.154C60.4343 15.154 61.1906 16.4079 61.1906 18.2588C61.1906 20.1098 60.4343 21.3437 59.0212 21.3437ZM59.0411 23.6524C62.325 23.6524 64.4745 21.3238 64.4745 18.2588C64.4745 15.1939 62.325 12.8653 59.0411 12.8653C55.7771 12.8653 53.5879 15.1939 53.5879 18.2588C53.5879 21.3238 55.7771 23.6524 59.0411 23.6524Z" fill="#080C2E"/>
<path id="Vector_3" d="M70.1587 26.8567C71.6713 26.8567 73.0048 26.5183 73.9004 25.7222C74.7164 24.9859 75.2537 23.8713 75.2537 22.3388V13.1439H72.149V14.2385H72.1091C71.5121 13.3827 70.5966 12.8454 69.2432 12.8454C66.7156 12.8454 64.9642 14.955 64.9642 17.9404C64.9642 21.0651 67.0937 22.7767 69.3825 22.7767C70.6165 22.7767 71.3927 22.2791 71.9897 21.6024H72.0693V22.6175C72.0693 23.8514 71.4922 24.5679 70.1189 24.5679C69.0442 24.5679 68.5068 24.1101 68.3277 23.5728H65.1831C65.5015 25.7023 67.3525 26.8567 70.1587 26.8567ZM70.1388 20.3685C68.9248 20.3685 68.1287 19.3734 68.1287 17.8409C68.1287 16.2885 68.9248 15.2934 70.1388 15.2934C71.4922 15.2934 72.2087 16.4477 72.2087 17.821C72.2087 19.254 71.5519 20.3685 70.1388 20.3685Z" fill="#080C2E"/>
<path id="Vector_4" d="M81.6377 21.3437C80.2246 21.3437 79.4882 20.1098 79.4882 18.2588C79.4882 16.4079 80.2246 15.154 81.6377 15.154C83.0508 15.154 83.8071 16.4079 83.8071 18.2588C83.8071 20.1098 83.0508 21.3437 81.6377 21.3437ZM81.6576 23.6524C84.9415 23.6524 87.091 21.3238 87.091 18.2588C87.091 15.1939 84.9415 12.8653 81.6576 12.8653C78.3936 12.8653 76.2043 15.1939 76.2043 18.2588C76.2043 21.3238 78.3936 23.6524 81.6576 23.6524Z" fill="#080C2E"/>
<path id="Vector_5" d="M88.038 23.3339H91.2821V13.1439H88.038V23.3339ZM88.038 11.7308H91.2821V9.1037H88.038V11.7308Z" fill="#080C2E"/>
<path id="Vector_6" d="M92.6902 26.6975H95.9343V22.2791H95.9741C96.611 23.1349 97.5464 23.6524 98.8599 23.6524C101.527 23.6524 103.298 21.5427 103.298 18.2389C103.298 15.174 101.646 12.8454 98.9395 12.8454C97.5464 12.8454 96.5513 13.4623 95.8547 14.3779H95.795V13.1439H92.6902V26.6975ZM98.024 21.1447C96.6309 21.1447 95.8348 20.0102 95.8348 18.3583C95.8348 16.7064 96.5513 15.4526 97.9643 15.4526C99.3575 15.4526 100.014 16.6069 100.014 18.3583C100.014 20.0899 99.258 21.1447 98.024 21.1447Z" fill="#080C2E"/>
<path id="Vector_7" d="M108.58 23.6524C111.247 23.6524 113.217 22.498 113.217 20.269C113.217 17.6618 111.107 17.204 109.316 16.9055C108.023 16.6666 106.868 16.5671 106.868 15.8506C106.868 15.2138 107.485 14.9152 108.281 14.9152C109.177 14.9152 109.794 15.1939 109.913 16.1094H112.899C112.739 14.0992 111.187 12.8454 108.301 12.8454C105.893 12.8454 103.903 13.9599 103.903 16.1094C103.903 18.4977 105.793 18.9753 107.565 19.2739C108.918 19.5127 110.152 19.6122 110.152 20.5277C110.152 21.1845 109.535 21.5427 108.56 21.5427C107.485 21.5427 106.808 21.0452 106.689 20.0301H103.624C103.724 22.2791 105.594 23.6524 108.58 23.6524Z" fill="#080C2E"/>
<path id="Vector_8" d="M117.624 23.6325C119.037 23.6325 119.933 23.0752 120.669 22.0801H120.729V23.3339H123.833V13.1439H120.589V18.836C120.589 20.05 119.913 20.8859 118.798 20.8859C117.763 20.8859 117.266 20.269 117.266 19.1544V13.1439H114.041V19.8311C114.041 22.1 115.275 23.6325 117.624 23.6325Z" fill="#080C2E"/>
<path id="Vector_9" d="M125.244 23.334H128.488V17.622C128.488 16.4079 129.085 15.5521 130.1 15.5521C131.075 15.5521 131.533 16.189 131.533 17.2836V23.334H134.777V17.622C134.777 16.4079 135.354 15.5521 136.389 15.5521C137.365 15.5521 137.822 16.189 137.822 17.2836V23.334H141.066V16.7064C141.066 14.4177 139.912 12.8454 137.603 12.8454C136.29 12.8454 135.195 13.4026 134.399 14.6366H134.359C133.842 13.542 132.827 12.8454 131.493 12.8454C130.021 12.8454 129.045 13.542 128.408 14.5968H128.349V13.1439H125.244V23.334Z" fill="#080C2E"/>
<path id="Vector_10" fill-rule="evenodd" clip-rule="evenodd" d="M17.3844 33.2852C26.5443 33.2852 33.9698 25.8597 33.9698 16.6998C33.9698 7.54 26.5443 0.114471 17.3844 0.114471C8.22455 0.114471 0.799042 7.54 0.799042 16.6998C0.799042 25.8597 8.22455 33.2852 17.3844 33.2852ZM22.5585 7.84063C22.8103 6.94602 21.9422 6.41702 21.1493 6.98189L10.0811 14.8668C9.22127 15.4794 9.35653 16.6998 10.2843 16.6998H13.1989V16.6773H18.8792L14.2508 18.3103L12.2104 25.5591C11.9585 26.4537 12.8266 26.9827 13.6195 26.4178L24.6877 18.5329C25.5476 17.9203 25.4122 16.6998 24.4845 16.6998H20.0647L22.5585 7.84063Z" fill="#080C2E"/>
</g>
<defs>
<clipPath id="clip0_1_421">
<rect width="140.976" height="34" fill="white" transform="translate(0.23175)"/>
</clipPath>
</defs>
</svg>
