<svg width="142" height="34" viewBox="0 0 142 34" fill="none" xmlns="http://www.w3.org/2000/svg">
<g id="logo-52" clip-path="url(#clip0_1_410)">
<path id="Vector" d="M42.7789 24.3168H52.6903V21.3314H46.3016V10.0865H42.7789V24.3168Z" fill="#640EF1"/>
<path id="Vector_2" d="M58.5625 22.3266C57.1494 22.3266 56.413 21.0926 56.413 19.2417C56.413 17.3907 57.1494 16.1369 58.5625 16.1369C59.9755 16.1369 60.7318 17.3907 60.7318 19.2417C60.7318 21.0926 59.9755 22.3266 58.5625 22.3266ZM58.5824 24.6352C61.8663 24.6352 64.0157 22.3067 64.0157 19.2417C64.0157 16.1767 61.8663 13.8481 58.5824 13.8481C55.3184 13.8481 53.1291 16.1767 53.1291 19.2417C53.1291 22.3067 55.3184 24.6352 58.5824 24.6352Z" fill="#640EF1"/>
<path id="Vector_3" d="M69.6999 27.8395C71.2124 27.8395 72.5459 27.5012 73.4415 26.7051C74.2575 25.9687 74.7949 24.8542 74.7949 23.3217V14.1268H71.6901V15.2214H71.6503C71.0532 14.3656 70.1377 13.8282 68.7844 13.8282C66.2567 13.8282 64.5053 15.9379 64.5053 18.9232C64.5053 22.0479 66.6349 23.7595 68.9237 23.7595C70.1576 23.7595 70.9338 23.262 71.5309 22.5853H71.6105V23.6003C71.6105 24.8343 71.0333 25.5508 69.6601 25.5508C68.5853 25.5508 68.048 25.093 67.8688 24.5556H64.7243C65.0427 26.6852 66.8936 27.8395 69.6999 27.8395ZM69.68 21.3513C68.4659 21.3513 67.6698 20.3562 67.6698 18.8237C67.6698 17.2713 68.4659 16.2762 69.68 16.2762C71.0333 16.2762 71.7498 17.4306 71.7498 18.8038C71.7498 20.2368 71.093 21.3513 69.68 21.3513Z" fill="#640EF1"/>
<path id="Vector_4" d="M81.1789 22.3266C79.7658 22.3266 79.0295 21.0926 79.0295 19.2417C79.0295 17.3907 79.7658 16.1369 81.1789 16.1369C82.592 16.1369 83.348 17.3907 83.348 19.2417C83.348 21.0926 82.592 22.3266 81.1789 22.3266ZM81.1988 24.6352C84.4824 24.6352 86.6319 22.3067 86.6319 19.2417C86.6319 16.1767 84.4824 13.8481 81.1988 13.8481C77.9348 13.8481 75.7456 16.1767 75.7456 19.2417C75.7456 22.3067 77.9348 24.6352 81.1988 24.6352Z" fill="#640EF1"/>
<path id="Vector_5" d="M87.5797 24.3168H90.8238V14.1267H87.5797V24.3168ZM87.5797 12.7137H90.8238V10.0865H87.5797V12.7137Z" fill="#640EF1"/>
<path id="Vector_6" d="M92.2311 27.6803H95.4752V23.262H95.515C96.1519 24.1178 97.0873 24.6352 98.4008 24.6352C101.068 24.6352 102.839 22.5256 102.839 19.2218C102.839 16.1568 101.187 13.8282 98.4804 13.8282C97.0873 13.8282 96.0921 14.4452 95.3956 15.3607H95.3359V14.1268H92.2311V27.6803ZM97.5649 22.1275C96.1718 22.1275 95.3757 20.9931 95.3757 19.3412C95.3757 17.6893 96.0922 16.4354 97.5052 16.4354C98.8984 16.4354 99.5552 17.5898 99.5552 19.3412C99.5552 21.0727 98.7989 22.1275 97.5649 22.1275Z" fill="#640EF1"/>
<path id="Vector_7" d="M108.121 24.6352C110.788 24.6352 112.758 23.4809 112.758 21.2518C112.758 18.6446 110.648 18.1869 108.857 17.8883C107.563 17.6495 106.409 17.55 106.409 16.8335C106.409 16.1966 107.026 15.8981 107.822 15.8981C108.718 15.8981 109.335 16.1767 109.454 17.0922H112.44C112.28 15.0821 110.728 13.8282 107.842 13.8282C105.434 13.8282 103.444 14.9428 103.444 17.0922C103.444 19.4805 105.334 19.9582 107.106 20.2567C108.459 20.4955 109.693 20.595 109.693 21.5106C109.693 22.1673 109.076 22.5256 108.101 22.5256C107.026 22.5256 106.349 22.028 106.23 21.013H103.165C103.264 23.262 105.135 24.6352 108.121 24.6352Z" fill="#640EF1"/>
<path id="Vector_8" d="M117.165 24.6153C118.578 24.6153 119.473 24.0581 120.21 23.0629H120.269V24.3168H123.374V14.1267H120.13V19.8188C120.13 21.0329 119.453 21.8688 118.339 21.8688C117.304 21.8688 116.806 21.2518 116.806 20.1373V14.1267H113.582V20.814C113.582 23.0828 114.816 24.6153 117.165 24.6153Z" fill="#640EF1"/>
<path id="Vector_9" d="M124.786 24.3168H128.03V18.6048C128.03 17.3908 128.627 16.5349 129.642 16.5349C130.617 16.5349 131.075 17.1718 131.075 18.2665V24.3168H134.319V18.6048C134.319 17.3908 134.896 16.5349 135.931 16.5349C136.906 16.5349 137.364 17.1718 137.364 18.2665V24.3168H140.608V17.6893C140.608 15.4005 139.454 13.8282 137.145 13.8282C135.832 13.8282 134.737 14.3855 133.941 15.6194H133.901C133.384 14.5248 132.369 13.8282 131.035 13.8282C129.562 13.8282 128.587 14.5248 127.95 15.5796H127.89V14.1268H124.786V24.3168Z" fill="#640EF1"/>
<path id="Vector_10" fill-rule="evenodd" clip-rule="evenodd" d="M16.9256 33.4388C26.0855 33.4388 33.5109 26.0132 33.5109 16.8534C33.5109 7.69358 26.0855 0.268066 16.9256 0.268066C7.76574 0.268066 0.340225 7.69358 0.340225 16.8534C0.340225 26.0132 7.76574 33.4388 16.9256 33.4388ZM19.4855 13.0824C20.8992 11.6686 20.8992 9.37638 19.4855 7.96256C18.0717 6.54876 15.7795 6.54876 14.3657 7.96256C12.952 9.37638 12.952 11.6686 14.3657 13.0824L16.9256 15.6423L19.4855 13.0824ZM20.6967 19.4133C22.1105 20.8272 24.4027 20.8272 25.8165 19.4133C27.2302 17.9995 27.2302 15.7073 25.8165 14.2935C24.4027 12.8798 22.1105 12.8798 20.6967 14.2935L18.1368 16.8535L20.6967 19.4133ZM19.4855 25.7443C20.8992 24.3305 20.8992 22.0383 19.4855 20.6245L16.9256 18.0646L14.3657 20.6245C12.952 22.0383 12.952 24.3305 14.3657 25.7443C15.7795 27.1581 18.0717 27.1581 19.4855 25.7443ZM8.0347 19.4133C6.62093 17.9995 6.62093 15.7073 8.0347 14.2935C9.44854 12.8798 11.7407 12.8798 13.1545 14.2935L15.7144 16.8535L13.1545 19.4133C11.7407 20.8272 9.44854 20.8272 8.0347 19.4133Z" fill="#640EF1"/>
</g>
<defs>
<clipPath id="clip0_1_410">
<rect width="140.976" height="34" fill="white" transform="translate(0.256104)"/>
</clipPath>
</defs>
</svg>
