<svg width="155" height="34" viewBox="0 0 155 34" fill="none" xmlns="http://www.w3.org/2000/svg">
<g id="logo-27">
<path id="Vector" d="M45.8777 22.6914C45.8777 23.4336 45.7253 24.0039 45.4206 24.4023C45.1238 24.8008 44.6277 25 43.9324 25C43.2761 25 42.8113 24.8008 42.5378 24.4023C42.2722 24.0039 42.1394 23.4336 42.1394 22.6914V10.3047C42.1394 9.5625 42.2722 8.99219 42.5378 8.59375C42.8113 8.19531 43.2761 7.99609 43.9324 7.99609C44.6277 7.99609 45.1238 8.19531 45.4206 8.59375C45.7253 8.99219 45.8777 9.5625 45.8777 10.3047V22.6914Z" fill="#080C2E"/>
<path id="Vector_2" d="M47.0125 19.0938C47.0125 18.2656 47.1453 17.4844 47.411 16.75C47.6844 16.0078 48.0906 15.3594 48.6297 14.8047C49.1766 14.25 49.8563 13.8086 50.6688 13.4805C51.4891 13.1523 52.45 12.9883 53.5516 12.9883C54.6063 12.9883 55.5399 13.1406 56.3524 13.4453C57.1649 13.75 57.8485 14.1758 58.4031 14.7227C58.9578 15.2617 59.3797 15.9062 59.6688 16.6562C59.9578 17.3984 60.1024 18.2109 60.1024 19.0938C60.1024 19.9141 59.9656 20.6914 59.6922 21.4258C59.4188 22.1523 59.0086 22.793 58.4617 23.3477C57.9149 23.8945 57.2313 24.332 56.411 24.6602C55.5906 24.9805 54.6375 25.1406 53.5516 25.1406C52.4813 25.1406 51.536 24.9883 50.7156 24.6836C49.9031 24.3711 49.2196 23.9453 48.6649 23.4062C48.118 22.8594 47.7039 22.2188 47.4227 21.4844C47.1492 20.7422 47.0125 19.9453 47.0125 19.0938ZM50.9149 19.0938C50.9149 19.6094 50.9617 20.1016 51.0555 20.5703C51.1492 21.0312 51.2977 21.4375 51.5008 21.7891C51.7117 22.1406 51.9852 22.4219 52.3211 22.6328C52.6571 22.8359 53.0672 22.9375 53.5516 22.9375C53.9969 22.9375 54.3836 22.8438 54.7117 22.6562C55.0477 22.4688 55.3211 22.207 55.5321 21.8711C55.7508 21.5352 55.9149 21.1328 56.0242 20.6641C56.1336 20.1875 56.1883 19.6641 56.1883 19.0938C56.1883 18.5781 56.1375 18.0898 56.036 17.6289C55.9422 17.1602 55.7899 16.75 55.5789 16.3984C55.368 16.0391 55.0946 15.7578 54.7586 15.5547C54.4305 15.3438 54.0281 15.2383 53.5516 15.2383C53.075 15.2383 52.6688 15.3398 52.3328 15.543C51.9969 15.7461 51.7235 16.0234 51.5125 16.375C51.3016 16.7266 51.1492 17.1367 51.0555 17.6055C50.9617 18.0742 50.9149 18.5703 50.9149 19.0938Z" fill="#080C2E"/>
<path id="Vector_3" d="M69.7216 22.7383C69.5106 23.1289 69.2528 23.4609 68.9481 23.7344C68.6513 24.0078 68.3192 24.2344 67.9521 24.4141C67.5927 24.5859 67.206 24.7148 66.7919 24.8008C66.3856 24.8789 65.9677 24.918 65.538 24.918C64.8192 24.918 64.163 24.7891 63.5692 24.5312C62.9755 24.2734 62.4638 23.9023 62.0341 23.418C61.6122 22.9258 61.2841 22.3242 61.0497 21.6133C60.8153 20.9023 60.6981 20.0898 60.6981 19.1758C60.6981 18.3164 60.8075 17.5117 61.0263 16.7617C61.245 16.0117 61.5614 15.3594 61.9755 14.8047C62.3974 14.25 62.913 13.8125 63.5224 13.4922C64.1317 13.1719 64.8271 13.0117 65.6083 13.0117C66.4989 13.0117 67.288 13.1836 67.9755 13.5273C68.6708 13.8711 69.2685 14.4336 69.7685 15.2148V14.9102C69.7685 14.3477 69.9208 13.9258 70.2255 13.6445C70.538 13.3555 70.9677 13.2109 71.5146 13.2109C71.8427 13.2109 72.12 13.2656 72.3466 13.375C72.5731 13.4766 72.7528 13.6328 72.8856 13.8438C73.0185 14.0469 73.1122 14.3008 73.1669 14.6055C73.2294 14.9023 73.2606 15.2422 73.2606 15.625V23.4766C73.2606 24.4297 73.1396 25.2812 72.8974 26.0312C72.663 26.7812 72.2958 27.4141 71.7958 27.9297C71.2958 28.4453 70.6552 28.8359 69.8739 29.1016C69.0927 29.375 68.163 29.5117 67.0849 29.5117C66.3271 29.5117 65.6552 29.4766 65.0692 29.4062C64.4911 29.3438 63.9911 29.2461 63.5692 29.1133C63.1474 28.9648 62.8271 28.8008 62.6083 28.6211C62.3974 28.4414 62.2919 28.207 62.2919 27.918C62.2919 27.7539 62.3153 27.5977 62.3622 27.4492C62.4091 27.3008 62.4794 27.168 62.5731 27.0508C62.6747 26.9414 62.8036 26.8516 62.9599 26.7812C63.1239 26.7188 63.3231 26.6875 63.5575 26.6875C63.8075 26.6875 64.0575 26.7031 64.3075 26.7344C64.5653 26.7656 64.831 26.7969 65.1044 26.8281C65.3856 26.8672 65.6786 26.9023 65.9833 26.9336C66.2958 26.9648 66.6317 26.9805 66.9911 26.9805C67.4208 26.9805 67.8036 26.9375 68.1396 26.8516C68.4755 26.7656 68.7606 26.6133 68.995 26.3945C69.2294 26.1758 69.4091 25.8828 69.5341 25.5156C69.6591 25.1562 69.7216 24.6953 69.7216 24.1328V22.7383ZM69.7216 19.0938C69.7216 18.5234 69.6786 18.0039 69.5927 17.5352C69.5146 17.0664 69.3778 16.668 69.1825 16.3398C68.9872 16.0039 68.7255 15.7461 68.3974 15.5664C68.0692 15.3789 67.6591 15.2852 67.1669 15.2852C66.6825 15.2852 66.2802 15.3828 65.9599 15.5781C65.6474 15.7734 65.3974 16.043 65.2099 16.3867C65.0224 16.7305 64.8896 17.1328 64.8114 17.5938C64.7411 18.0547 64.706 18.5469 64.706 19.0703C64.706 20.2656 64.9169 21.1641 65.3388 21.7656C65.7606 22.3672 66.3739 22.668 67.1786 22.668C67.5536 22.6602 67.8935 22.5898 68.1981 22.457C68.5106 22.3164 68.7802 22.1016 69.0067 21.8125C69.2333 21.5234 69.4091 21.1562 69.5341 20.7109C69.6591 20.2656 69.7216 19.7266 69.7216 19.0938Z" fill="#080C2E"/>
<path id="Vector_4" d="M74.3369 19.0938C74.3369 18.2656 74.4697 17.4844 74.7353 16.75C75.0088 16.0078 75.415 15.3594 75.9541 14.8047C76.501 14.25 77.1806 13.8086 77.9931 13.4805C78.8135 13.1523 79.7744 12.9883 80.876 12.9883C81.9306 12.9883 82.8642 13.1406 83.6767 13.4453C84.4892 13.75 85.1728 14.1758 85.7275 14.7227C86.2822 15.2617 86.7041 15.9062 86.9931 16.6562C87.2822 17.3984 87.4267 18.2109 87.4267 19.0938C87.4267 19.9141 87.29 20.6914 87.0166 21.4258C86.7431 22.1523 86.333 22.793 85.7861 23.3477C85.2392 23.8945 84.5556 24.332 83.7353 24.6602C82.915 24.9805 81.9619 25.1406 80.876 25.1406C79.8056 25.1406 78.8603 24.9883 78.04 24.6836C77.2275 24.3711 76.5439 23.9453 75.9892 23.4062C75.4424 22.8594 75.0283 22.2188 74.747 21.4844C74.4736 20.7422 74.3369 19.9453 74.3369 19.0938ZM78.2392 19.0938C78.2392 19.6094 78.2861 20.1016 78.3799 20.5703C78.4736 21.0312 78.622 21.4375 78.8252 21.7891C79.0361 22.1406 79.3095 22.4219 79.6455 22.6328C79.9814 22.8359 80.3916 22.9375 80.876 22.9375C81.3213 22.9375 81.708 22.8438 82.0361 22.6562C82.372 22.4688 82.6455 22.207 82.8564 21.8711C83.0752 21.5352 83.2392 21.1328 83.3486 20.6641C83.458 20.1875 83.5127 19.6641 83.5127 19.0938C83.5127 18.5781 83.4619 18.0898 83.3603 17.6289C83.2666 17.1602 83.1142 16.75 82.9033 16.3984C82.6924 16.0391 82.4189 15.7578 82.083 15.5547C81.7549 15.3438 81.3525 15.2383 80.876 15.2383C80.3994 15.2383 79.9931 15.3398 79.6572 15.543C79.3213 15.7461 79.0478 16.0234 78.8369 16.375C78.626 16.7266 78.4736 17.1367 78.3799 17.6055C78.2861 18.0742 78.2392 18.5703 78.2392 19.0938Z" fill="#080C2E"/>
<path id="Vector_5" d="M92.4522 9.03906C92.4522 9.29688 92.3936 9.52734 92.2764 9.73047C92.1592 9.92578 92.0069 10.0898 91.8194 10.2227C91.6319 10.3555 91.4131 10.457 91.1631 10.5273C90.921 10.5898 90.671 10.6211 90.4131 10.6211C90.1397 10.6211 89.878 10.5859 89.628 10.5156C89.3858 10.4453 89.171 10.3438 88.9835 10.2109C88.796 10.0703 88.6475 9.90234 88.5381 9.70703C88.4288 9.51172 88.3741 9.28906 88.3741 9.03906C88.3741 8.8125 88.4249 8.60547 88.5264 8.41797C88.6358 8.22266 88.7803 8.05469 88.96 7.91406C89.1397 7.77344 89.3546 7.66406 89.6046 7.58594C89.8546 7.50781 90.128 7.46875 90.4249 7.46875C90.6827 7.46875 90.9327 7.50391 91.1749 7.57422C91.4249 7.64453 91.6436 7.74609 91.8311 7.87891C92.0186 8.01172 92.1671 8.17578 92.2764 8.37109C92.3936 8.56641 92.4522 8.78906 92.4522 9.03906ZM92.2764 22.6914C92.2764 23.4336 92.1241 24.0039 91.8194 24.4023C91.5225 24.8008 91.0264 25 90.3311 25C89.6749 25 89.21 24.8008 88.9366 24.4023C88.671 24.0039 88.5381 23.4336 88.5381 22.6914V15.5195C88.5381 14.7773 88.671 14.207 88.9366 13.8086C89.21 13.4102 89.6749 13.2109 90.3311 13.2109C91.0264 13.2109 91.5225 13.4102 91.8194 13.8086C92.1241 14.207 92.2764 14.7773 92.2764 15.5195V22.6914Z" fill="#080C2E"/>
<path id="Vector_6" d="M97.6652 19.0703C97.6652 19.5938 97.7042 20.082 97.7824 20.5352C97.8683 20.9883 98.0089 21.3867 98.2042 21.7305C98.4074 22.0664 98.673 22.332 99.0011 22.5273C99.337 22.7227 99.7511 22.8203 100.243 22.8203C100.696 22.8203 101.075 22.7266 101.38 22.5391C101.692 22.3438 101.942 22.0781 102.13 21.7422C102.317 21.3984 102.45 20.9961 102.528 20.5352C102.614 20.0742 102.657 19.5742 102.657 19.0352C102.657 18.6055 102.626 18.168 102.563 17.7227C102.501 17.2695 102.384 16.8594 102.212 16.4922C102.04 16.125 101.802 15.8242 101.497 15.5898C101.192 15.3555 100.794 15.2383 100.302 15.2383C99.8097 15.2383 99.3917 15.3164 99.048 15.4727C98.712 15.6289 98.4386 15.8672 98.2277 16.1875C98.0245 16.5078 97.88 16.9102 97.7941 17.3945C97.7081 17.8711 97.6652 18.4297 97.6652 19.0703ZM97.6535 15.5195C97.8488 15.1055 98.0988 14.7422 98.4035 14.4297C98.7081 14.1172 99.0441 13.8555 99.4113 13.6445C99.7785 13.4336 100.161 13.2773 100.56 13.1758C100.966 13.0664 101.368 13.0117 101.766 13.0117C102.485 13.0117 103.134 13.1719 103.712 13.4922C104.29 13.8125 104.782 14.25 105.188 14.8047C105.602 15.3516 105.919 16 106.138 16.75C106.356 17.4922 106.466 18.2891 106.466 19.1406C106.466 20.0234 106.348 20.832 106.114 21.5664C105.888 22.3008 105.563 22.9336 105.141 23.4648C104.727 23.9883 104.227 24.3984 103.641 24.6953C103.063 24.9922 102.419 25.1406 101.708 25.1406C100.833 25.1406 100.052 24.9375 99.3644 24.5312C98.6769 24.125 98.1066 23.5547 97.6535 22.8203V27.0391C97.6535 27.7812 97.5011 28.3516 97.1964 28.75C96.8995 29.1484 96.4035 29.3477 95.7081 29.3477C95.0519 29.3477 94.587 29.1484 94.3136 28.75C94.048 28.3516 93.9152 27.7812 93.9152 27.0391V15.5195C93.9152 14.7773 94.048 14.207 94.3136 13.8086C94.587 13.4102 95.0519 13.2109 95.7081 13.2109C96.4035 13.2109 96.8995 13.4102 97.1964 13.8086C97.5011 14.207 97.6535 14.7773 97.6535 15.5195Z" fill="#080C2E"/>
<path id="Vector_7" d="M110.589 16.3516C110.589 16.6562 110.722 16.8945 110.987 17.0664C111.253 17.2305 111.62 17.3672 112.089 17.4766C112.534 17.5781 112.991 17.6758 113.46 17.7695C113.929 17.8633 114.386 17.9727 114.831 18.0977C115.276 18.2148 115.694 18.3555 116.085 18.5195C116.475 18.6836 116.819 18.8906 117.116 19.1406C117.413 19.3828 117.647 19.6797 117.819 20.0312C117.991 20.375 118.077 20.7891 118.077 21.2734C118.077 21.8828 117.952 22.4258 117.702 22.9023C117.452 23.3711 117.097 23.7695 116.636 24.0977C116.183 24.4258 115.64 24.6797 115.007 24.8594C114.374 25.0391 113.675 25.1328 112.909 25.1406C112.183 25.1406 111.483 25.0938 110.811 25C110.14 24.9141 109.542 24.7773 109.018 24.5898C108.503 24.4023 108.089 24.1719 107.776 23.8984C107.464 23.6172 107.308 23.2891 107.308 22.9141C107.308 22.5859 107.413 22.332 107.624 22.1523C107.835 21.9727 108.104 21.8828 108.433 21.8828C108.558 21.8828 108.706 21.9062 108.878 21.9531C109.05 22 109.237 22.0586 109.44 22.1289C109.643 22.1992 109.858 22.2773 110.085 22.3633C110.319 22.4414 110.561 22.5117 110.811 22.5742C111.124 22.6602 111.444 22.7305 111.772 22.7852C112.108 22.832 112.452 22.8555 112.804 22.8555C113.022 22.8555 113.237 22.8359 113.448 22.7969C113.659 22.75 113.847 22.6836 114.011 22.5977C114.183 22.5039 114.323 22.3867 114.433 22.2461C114.542 22.1055 114.608 21.9336 114.632 21.7305C114.655 21.6836 114.675 21.6367 114.69 21.5898C114.706 21.543 114.714 21.4883 114.714 21.4258C114.714 21.207 114.612 21.0117 114.409 20.8398C114.214 20.668 113.936 20.5312 113.577 20.4297C112.975 20.2891 112.401 20.1602 111.854 20.043C111.308 19.9258 110.8 19.8008 110.331 19.668C109.87 19.5352 109.448 19.3828 109.065 19.2109C108.69 19.0391 108.37 18.8281 108.104 18.5781C107.847 18.3281 107.643 18.0273 107.495 17.6758C107.354 17.3242 107.284 16.8984 107.284 16.3984C107.284 15.8594 107.405 15.3789 107.647 14.957C107.897 14.5273 108.253 14.168 108.714 13.8789C109.175 13.5898 109.733 13.3711 110.39 13.2227C111.046 13.0664 111.788 12.9883 112.616 12.9883C114.1 12.9883 115.229 13.168 116.003 13.5273C116.784 13.8789 117.175 14.3398 117.175 14.9102C117.175 15.2305 117.069 15.4766 116.858 15.6484C116.647 15.8125 116.393 15.8945 116.097 15.8945C115.94 15.8945 115.776 15.8672 115.604 15.8125C115.44 15.75 115.241 15.6836 115.007 15.6133C114.772 15.5352 114.491 15.4688 114.163 15.4141C113.843 15.3516 113.444 15.3203 112.968 15.3203C112.608 15.3203 112.28 15.3359 111.983 15.3672C111.694 15.3984 111.444 15.4531 111.233 15.5312C111.03 15.6094 110.87 15.7148 110.753 15.8477C110.643 15.9805 110.589 16.1484 110.589 16.3516Z" fill="#080C2E"/>
<path id="Vector_8" d="M122.833 20.6523C122.833 21.0195 122.88 21.3398 122.974 21.6133C123.075 21.8867 123.212 22.1172 123.384 22.3047C123.556 22.4844 123.755 22.6211 123.981 22.7148C124.216 22.8008 124.466 22.8438 124.731 22.8438C125.044 22.8438 125.345 22.7969 125.634 22.7031C125.923 22.6094 126.177 22.4648 126.396 22.2695C126.622 22.0742 126.802 21.8281 126.935 21.5312C127.067 21.2344 127.134 20.8867 127.134 20.4883V15.5195C127.134 14.7773 127.267 14.207 127.532 13.8086C127.806 13.4102 128.271 13.2109 128.927 13.2109C129.622 13.2109 130.118 13.4102 130.415 13.8086C130.72 14.207 130.872 14.7773 130.872 15.5195V22.6914C130.872 23.4336 130.72 24.0039 130.415 24.4023C130.118 24.8008 129.622 25 128.927 25C128.271 25 127.806 24.8008 127.532 24.4023C127.267 24.0039 127.134 23.4336 127.134 22.6914C126.97 23.0508 126.755 23.3789 126.489 23.6758C126.231 23.9727 125.927 24.2305 125.575 24.4492C125.231 24.6602 124.849 24.8242 124.427 24.9414C124.013 25.0586 123.563 25.1172 123.079 25.1172C122.556 25.1172 122.052 25.0273 121.567 24.8477C121.091 24.6602 120.669 24.3867 120.302 24.0273C119.935 23.6602 119.642 23.207 119.423 22.668C119.204 22.1289 119.095 21.5 119.095 20.7812V15.5195C119.095 14.7773 119.228 14.207 119.493 13.8086C119.767 13.4102 120.231 13.2109 120.888 13.2109C121.583 13.2109 122.079 13.4102 122.376 13.8086C122.681 14.207 122.833 14.7773 122.833 15.5195V20.6523Z" fill="#080C2E"/>
<path id="Vector_9" d="M132.569 15.5195C132.569 14.7773 132.702 14.207 132.968 13.8086C133.241 13.4102 133.706 13.2109 134.362 13.2109C135.058 13.2109 135.554 13.4102 135.851 13.8086C136.155 14.207 136.308 14.7773 136.308 15.5195C136.464 15.1445 136.675 14.8047 136.941 14.5C137.214 14.1875 137.523 13.9219 137.866 13.7031C138.218 13.4844 138.597 13.3164 139.003 13.1992C139.409 13.0742 139.831 13.0117 140.269 13.0117C140.675 13.0117 141.073 13.0664 141.464 13.1758C141.862 13.2773 142.23 13.4453 142.566 13.6797C142.909 13.9062 143.21 14.1953 143.468 14.5469C143.726 14.8984 143.925 15.3203 144.066 15.8125C144.308 15.2891 144.593 14.8477 144.921 14.4883C145.249 14.1289 145.605 13.8398 145.987 13.6211C146.37 13.4023 146.769 13.2461 147.183 13.1523C147.605 13.0586 148.026 13.0117 148.448 13.0117C148.948 13.0117 149.425 13.1016 149.878 13.2812C150.339 13.4609 150.741 13.7344 151.085 14.1016C151.437 14.4609 151.714 14.918 151.917 15.4727C152.128 16.0195 152.233 16.6602 152.233 17.3945V22.6914C152.233 23.4336 152.081 24.0039 151.776 24.4023C151.48 24.8008 150.983 25 150.288 25C149.632 25 149.167 24.8008 148.894 24.4023C148.628 24.0039 148.495 23.4336 148.495 22.6914V17.5586C148.495 17.207 148.448 16.8945 148.355 16.6211C148.261 16.3398 148.128 16.1055 147.956 15.918C147.792 15.7227 147.597 15.5781 147.37 15.4844C147.144 15.3828 146.901 15.332 146.644 15.332C146.323 15.332 146.019 15.3828 145.73 15.4844C145.441 15.5859 145.187 15.7422 144.968 15.9531C144.757 16.1641 144.585 16.4336 144.452 16.7617C144.327 17.0898 144.265 17.4844 144.265 17.9453V22.6914C144.265 23.4336 144.112 24.0039 143.808 24.4023C143.511 24.8008 143.015 25 142.319 25C141.663 25 141.198 24.8008 140.925 24.4023C140.659 24.0039 140.526 23.4336 140.526 22.6914V17.7812C140.526 16.9766 140.358 16.3672 140.023 15.9531C139.694 15.5391 139.245 15.332 138.675 15.332C138.339 15.332 138.026 15.3867 137.737 15.4961C137.448 15.6055 137.198 15.7656 136.987 15.9766C136.776 16.1875 136.608 16.4492 136.483 16.7617C136.366 17.0742 136.308 17.4336 136.308 17.8398V22.6914C136.308 23.4336 136.155 24.0039 135.851 24.4023C135.554 24.8008 135.058 25 134.362 25C133.706 25 133.241 24.8008 132.968 24.4023C132.702 24.0039 132.569 23.4336 132.569 22.6914V15.5195Z" fill="#080C2E"/>
<path id="Vector_10" d="M17.7683 23C14.4546 23 11.7683 20.3137 11.7683 17C11.7683 13.6863 14.4546 11 17.7683 11C21.082 11 23.7683 13.6863 23.7683 17C23.7683 20.3137 21.082 23 17.7683 23Z" fill="#080C2E"/>
<path id="Vector_11" d="M6.14451 19.0496C4.40576 19.3562 3.21394 21.0358 3.88139 22.6704C4.81323 24.9524 6.29986 26.9856 8.22717 28.5744C10.9831 30.8461 14.4591 32.06 18.0301 31.9977C21.6011 31.9354 25.0327 30.6009 27.7077 28.2343C29.5783 26.5793 30.9931 24.4954 31.8448 22.1823C32.4548 20.5254 31.205 18.8884 29.4566 18.6427C27.7083 18.397 26.1385 19.6696 25.2749 21.2096C24.8068 22.0443 24.1991 22.8016 23.4711 23.4457C21.9363 24.8036 19.9674 25.5692 17.9186 25.605C15.8697 25.6407 13.8753 24.9443 12.2941 23.6408C11.544 23.0225 10.9103 22.2869 10.4133 21.469C9.49651 19.9601 7.88326 18.743 6.14451 19.0496Z" fill="#080C2E"/>
<path id="Vector_12" d="M32.6523 18.8745C32.7289 18.2604 32.7683 17.6348 32.7683 17C32.7683 8.71573 26.0526 2 17.7683 2C9.48401 2 2.76828 8.71573 2.76828 17C2.76828 17.8147 2.83323 18.6142 2.95824 19.3937C3.64722 18.4505 4.72254 17.7772 5.88404 17.5724C7.14073 17.3508 8.28286 17.6556 9.24855 18.2253C9.1915 17.8251 9.16198 17.416 9.16198 17C9.16198 12.2469 13.0152 8.3937 17.7683 8.3937C22.5214 8.3937 26.3746 12.2469 26.3746 17C26.3746 17.3134 26.3578 17.6229 26.3252 17.9276C27.2705 17.3243 28.4015 16.9796 29.6654 17.1573C30.833 17.3214 31.9308 17.9564 32.6523 18.8745Z" fill="#080C2E"/>
</g>
</svg>
